<svg xmlns="http://www.w3.org/2000/svg" viewBox="0 0 298.58 306.44"><title>icon_art</title><g id="Layer_3" data-name="Layer 3"><path d="M75,111.79c-7.14,6.59-8.84,16.18-3.79,21.43s14.92,4.3,22.07-2.29,8.85-16.18,3.79-21.43S82.13,105.26,75,111.79Z"/><path d="M144.25,91c-3.06-6.58-12.78-8.68-21.68-4.67S109,99,112,105.54s12.79,8.69,21.68,4.68S147.41,97.62,144.25,91Z"/><path d="M174,94.18c-8.89,4-13.61,12.6-10.54,19.19s12.78,8.68,21.68,4.68,13.61-12.6,10.54-19.19S182.89,90.22,174,94.18Z"/><path d="M221.92,146c8.9-4,13.61-12.59,10.55-19.18s-12.78-8.69-21.68-4.68-13.61,12.6-10.55,19.19S213,149.93,221.92,146Z"/><path d="M212.88,165.86c-8.89,4-13.61,12.6-10.55,19.19s12.79,8.69,21.68,4.68,13.61-12.6,10.55-19.19S221.78,161.86,212.88,165.86Z"/><path d="M154.94,178.51c-14.68,3.29-24.69,14.56-22.16,25.06s16.43,16.37,31.11,13.07,24.69-14.55,22.26-25S169.62,175.22,154.94,178.51Z"/><path d="M269.75,133.41c-7.48-43.9-54.15-75.83-110.92-75.83a158.55,158.55,0,0,0-25.47,2.1C66.91,70.61,20.06,121.43,28.81,173a70.61,70.61,0,0,0,4.42,14.93,7.08,7.08,0,0,0,.92,2.53.22.22,0,0,1,.05.15s0,.19,0,.28h0a26.17,26.17,0,0,0,16,10.31c10.79,2.43,23.24-.62,37.19-9.31,7.14-4.39,11.47-4.67,12.24-3.43,1.71,2.58.34,10.35-6.12,14.79-14.14,9.6-19.2,18.85-14.83,27.54,3.65,7.3,14.2,11.36,25.38,13.6a142,142,0,0,0,35.38,4.49,158.55,158.55,0,0,0,25.47-2.1C231.64,235.83,278.6,185.05,269.75,133.41ZM162.82,233.87a132,132,0,0,1-22,2,143.76,143.76,0,0,1-46-8c-3.84-2.38-1.24-8.71-1-9a37,37,0,0,1,6-5c12.25-8.25,17.91-22.69,11-33-5-7.44-13-10.54-30,0-21.34,13.22-32,6.25-34,4-1.65-4-5.27-8.75-6-13-7.43-43.33,35-89.45,93-99,7.63-1.24,18.37-3,26-3,49.24,0,91.78,30.4,98,67C265.21,180.25,220.91,224.33,162.82,233.87Z"/><path d="M75,111.79c-7.14,6.59-8.84,16.18-3.79,21.43s14.92,4.3,22.07-2.29,8.85-16.18,3.79-21.43S82.13,105.26,75,111.79Z"/><path d="M144.25,91c-3.06-6.58-12.78-8.68-21.68-4.67S109,99,112,105.54s12.79,8.69,21.68,4.68S147.41,97.62,144.25,91Z"/><path d="M174,94.18c-8.89,4-13.61,12.6-10.54,19.19s12.78,8.68,21.68,4.68,13.61-12.6,10.54-19.19S182.89,90.22,174,94.18Z"/><path d="M221.92,146c8.9-4,13.61-12.59,10.55-19.18s-12.78-8.69-21.68-4.68-13.61,12.6-10.55,19.19S213,149.93,221.92,146Z"/><path d="M212.88,165.86c-8.89,4-13.61,12.6-10.55,19.19s12.79,8.69,21.68,4.68,13.61-12.6,10.55-19.19S221.78,161.86,212.88,165.86Z"/><path d="M154.94,178.51c-14.68,3.29-24.69,14.56-22.16,25.06s16.43,16.37,31.11,13.07,24.69-14.55,22.26-25S169.62,175.22,154.94,178.51Z"/><path d="M269.75,133.41c-7.48-43.9-54.15-75.83-110.92-75.83a158.55,158.55,0,0,0-25.47,2.1C66.91,70.61,20.06,121.43,28.81,173a70.61,70.61,0,0,0,4.42,14.93,7.08,7.08,0,0,0,.92,2.53.22.22,0,0,1,.05.15s0,.19,0,.28h0a26.17,26.17,0,0,0,16,10.31c10.79,2.43,23.24-.62,37.19-9.31,7.14-4.39,11.47-4.67,12.24-3.43,1.71,2.58.34,10.35-6.12,14.79-14.14,9.6-19.2,18.85-14.83,27.54,3.65,7.3,14.2,11.36,25.38,13.6a142,142,0,0,0,35.38,4.49,158.55,158.55,0,0,0,25.47-2.1C231.64,235.83,278.6,185.05,269.75,133.41ZM162.82,233.87a132,132,0,0,1-22,2,143.76,143.76,0,0,1-46-8c-3.84-2.38-1.24-8.71-1-9a37,37,0,0,1,6-5c12.25-8.25,17.91-22.69,11-33-5-7.44-13-10.54-30,0-21.34,13.22-32,6.25-34,4-1.65-4-5.27-8.75-6-13-7.43-43.33,35-89.45,93-99,7.63-1.24,18.37-3,26-3,49.24,0,91.78,30.4,98,67C265.21,180.25,220.91,224.33,162.82,233.87Z"/></g></svg>