<svg xmlns="http://www.w3.org/2000/svg" viewBox="0 0 587 164"><defs><style>.cls-1{font-size:90px;fill:#121216;font-family:AmaticSC-Bold, Amatic SC;font-weight:700;}.cls-2{fill:#706993;}</style></defs><title>logo_light</title><g id="Layer_2" data-name="Layer 2"><text class="cls-1" transform="translate(79.79 116.63)">Midnight Code</text><path class="cls-2" d="M501.39,42H478.34a3.82,3.82,0,0,0-3.82,3.82V114a3.82,3.82,0,0,0,3.82,3.82h23.05a3.82,3.82,0,0,0,3.82-3.82V45.82A3.82,3.82,0,0,0,501.39,42Zm-23.1,19.5A11.47,11.47,0,1,1,489.76,73,11.47,11.47,0,0,1,478.29,61.5Zm12.16,46.91a11.43,11.43,0,0,1-9.46-5,11.45,11.45,0,0,0,7.81-17.8,11.24,11.24,0,0,1,1.65-.14,11.47,11.47,0,1,1,0,22.94Z"/></g></svg>