<svg xmlns="http://www.w3.org/2000/svg" viewBox="0 0 450 90"><defs><style>.cls-1{font-size:90px;font-family:AmaticSC-Bold, Amatic SC;font-weight:700;}.cls-1,.cls-2{fill:#fff;}</style></defs><title>logo_full_dark</title><g id="Layer_2" data-name="Layer 2"><text class="cls-1" transform="translate(16.01 72.63)">Midnight Code</text><path class="cls-2" d="M430.51,3.77h-21A3.48,3.48,0,0,0,406,7.25V69.48A3.48,3.48,0,0,0,409.48,73h21A3.48,3.48,0,0,0,434,69.48V7.25A3.48,3.48,0,0,0,430.51,3.77ZM409.43,21.56A10.47,10.47,0,1,1,419.89,32,10.46,10.46,0,0,1,409.43,21.56Zm11.1,42.81a10.44,10.44,0,0,1-8.64-4.56A10.45,10.45,0,0,0,419,43.56a10.61,10.61,0,0,1,1.51-.12,10.47,10.47,0,0,1,0,20.93Z"/></g></svg>