<svg xmlns="http://www.w3.org/2000/svg" viewBox="0 0 1820.07 814.46"><defs><style>.cls-1{fill:#fff;}.cls-2,.cls-3{fill:#121216;}.cls-3{font-size:90px;font-family:AmaticSC-Bold, Amatic SC;font-weight:700;}.cls-4{fill:#706993;}</style></defs><title>Asset 1</title><g id="Layer_2" data-name="Layer 2"><g id="Layer_1-2" data-name="Layer 1"><path class="cls-1" d="M60.07,813.15,1.31,754.39a4.46,4.46,0,0,1,0-6.32l58.76-58.76a4.47,4.47,0,0,1,6.33,0l58.76,58.76a4.48,4.48,0,0,1,0,6.32L66.4,813.15a4.47,4.47,0,0,1-6.33,0"/><path class="cls-2" d="M79.38,722a15.46,15.46,0,1,1-15.45-15.45A15.46,15.46,0,0,1,79.38,722"/><path class="cls-2" d="M61.91,764.67a16.36,16.36,0,0,0-2.23.18,15.44,15.44,0,0,1-10.53,24,15.46,15.46,0,1,0,12.76-24.18"/><text class="cls-3" transform="translate(1418.62 79.11)">Moonlit Code</text><path class="cls-4" d="M1816.59,11.11h-21a3.48,3.48,0,0,0-3.48,3.48V76.81a3.48,3.48,0,0,0,3.48,3.49h21a3.48,3.48,0,0,0,3.48-3.49V14.59a3.48,3.48,0,0,0-3.48-3.48M1795.5,28.9A10.47,10.47,0,1,1,1806,39.36,10.47,10.47,0,0,1,1795.5,28.9m11.1,42.81a10.45,10.45,0,0,1-8.63-4.56,10.45,10.45,0,0,0,7.12-16.25,10.85,10.85,0,0,1,1.51-.12,10.47,10.47,0,1,1,0,20.93"/></g></g></svg>