<svg xmlns="http://www.w3.org/2000/svg" viewBox="0 0 436.99 102.96"><defs><style>.cls-1{font-size:90px;font-family:AmaticSC-Bold, Amatic SC;font-weight:700;}.cls-2{fill:#706993;}</style></defs><title>logo_full_purple</title><g id="Layer_2" data-name="Layer 2"><g id="Logo"><g id="light"><text class="cls-1" transform="translate(0 79.11)">Late Night Code</text><path id="Logo-2" data-name="Logo" class="cls-2" d="M433.5,11.25h-21A3.48,3.48,0,0,0,409,14.73V77a3.48,3.48,0,0,0,3.48,3.48h21A3.49,3.49,0,0,0,437,77V14.73a3.49,3.49,0,0,0-3.49-3.48M412.42,29a10.47,10.47,0,1,1,10.47,10.47A10.46,10.46,0,0,1,412.42,29m11.1,42.81a10.44,10.44,0,0,1-8.64-4.56A10.44,10.44,0,0,0,422,51.05a9.42,9.42,0,0,1,1.51-.13,10.47,10.47,0,1,1,0,20.93"/></g></g></g></svg>