<svg xmlns="http://www.w3.org/2000/svg" viewBox="0 0 401.44 102.96"><defs><style>.cls-1{font-size:90px;fill:#121216;font-family:AmaticSC-Bold, Amatic SC;font-weight:700;}.cls-2{fill:#706993;}</style></defs><title>Asset 3</title><g id="Layer_2" data-name="Layer 2"><g id="Layer_1-2" data-name="Layer 1"><text class="cls-1" transform="translate(0 79.11)">Moonlit Code</text><path class="cls-2" d="M398,11.11h-21a3.48,3.48,0,0,0-3.49,3.48V76.81a3.49,3.49,0,0,0,3.49,3.49h21a3.48,3.48,0,0,0,3.48-3.49V14.59A3.48,3.48,0,0,0,398,11.11M376.88,28.9a10.47,10.47,0,1,1,10.47,10.46A10.47,10.47,0,0,1,376.88,28.9M388,71.71a10.47,10.47,0,0,1-8.64-4.56,10.45,10.45,0,0,0,7.13-16.25,10.73,10.73,0,0,1,1.51-.12,10.47,10.47,0,0,1,0,20.93"/></g></g></svg>