<svg xmlns="http://www.w3.org/2000/svg" viewBox="0 0 450 90"><defs><style>.cls-1{font-size:90px;fill:#121216;font-family:AmaticSC-Bold, Amatic SC;font-weight:700;}.cls-2{fill:#70a0af;}</style></defs><title>logo_full_blue</title><g id="Layer_2" data-name="Layer 2"><text class="cls-1" transform="translate(12.29 81.63)">Midnight Code</text><path class="cls-2" d="M433.89,7H410.84A3.82,3.82,0,0,0,407,10.82V79a3.82,3.82,0,0,0,3.82,3.82h23.05A3.82,3.82,0,0,0,437.71,79V10.82A3.82,3.82,0,0,0,433.89,7Zm-23.1,19.5A11.47,11.47,0,1,1,422.26,38,11.47,11.47,0,0,1,410.79,26.5ZM423,73.41a11.43,11.43,0,0,1-9.46-5,11.45,11.45,0,0,0,7.81-17.8,11.24,11.24,0,0,1,1.65-.14,11.47,11.47,0,1,1,0,22.94Z"/></g></svg>