<svg xmlns="http://www.w3.org/2000/svg" viewBox="0 0 586 194"><defs><style>.cls-1{fill:#121216;}.cls-2{font-size:90px;font-family:AmaticSC-Bold, Amatic SC;font-weight:700;}.cls-2,.cls-3{fill:#fff;}</style></defs><title>logo_dark</title><g id="unprintable"><rect class="cls-1" x="2" y="-1" width="584" height="194"/></g><g id="Layer_2" data-name="Layer 2"><text class="cls-2" transform="translate(83.51 124.63)">Midnight Code</text><path class="cls-3" d="M499,55.77H478a3.48,3.48,0,0,0-3.49,3.48v62.23A3.48,3.48,0,0,0,478,125h21a3.48,3.48,0,0,0,3.48-3.48V59.25A3.48,3.48,0,0,0,499,55.77ZM477.93,73.56A10.47,10.47,0,1,1,488.39,84,10.46,10.46,0,0,1,477.93,73.56ZM489,116.37a10.44,10.44,0,0,1-8.64-4.56,10.45,10.45,0,0,0,7.13-16.25,10.61,10.61,0,0,1,1.51-.12,10.47,10.47,0,0,1,0,20.93Z"/></g></svg>