<svg xmlns="http://www.w3.org/2000/svg" viewBox="0 0 396.99 102.96"><defs><style>.cls-1{font-size:90px;font-family:AmaticSC-Bold, Amatic SC;font-weight:700;}.cls-1,.cls-2{fill:#fff;}</style></defs><title>logo_full_dark</title><g id="Layer_2" data-name="Layer 2"><g id="Layer_1-2" data-name="Layer 1"><text class="cls-1" transform="translate(0 79.11)">Moonlit Code</text><path class="cls-2" d="M393.5,11.25h-21A3.48,3.48,0,0,0,369,14.73V77a3.48,3.48,0,0,0,3.48,3.48h21A3.48,3.48,0,0,0,397,77V14.73A3.48,3.48,0,0,0,393.5,11.25ZM372.42,29a10.47,10.47,0,1,1,10.47,10.47A10.46,10.46,0,0,1,372.42,29Zm11.1,42.81a10.44,10.44,0,0,1-8.64-4.56A10.44,10.44,0,0,0,382,51.05a9.52,9.52,0,0,1,1.51-.13,10.47,10.47,0,1,1,0,20.93Z"/></g></g></svg>